<svg  xmlns="http://www.w3.org/2000/svg" version="1.1" xmlnsXlink="http://www.w3.org/1999/xlink" xmlnsSvgjs="http://svgjs.dev/svgjs" width="1000" height="262" viewBox="0 0 1000 262"><g transform="matrix(1,0,0,1,1.4050469164810124,-0.33128372183276156)"><svg viewBox="0 0 396 104" data-background-color="#ffffff" preserveAspectRatio="xMidYMid meet" height="262" width="1000" xmlns="http://www.w3.org/2000/svg" xmlnsXlink="http://www.w3.org/1999/xlink"><g id="tight-bounds" transform="matrix(1,0,0,1,0.23999757406340905,0.13150193538399435)"><svg viewBox="0 0 395.52 103.73699612923203" height="103.73699612923203" width="395.52"><g><svg viewBox="0 0 592.2080191616544 155.3243350310293" height="103.73699612923203" width="395.52"><g><rect width="6.510838158671929" height="155.3243350310293" x="173.13310205357953" y="0" fill="#FFFFFF" opacity="1" stroke-width="0" stroke="transparent" fill-opacity="1" class="rect-o-0" data-fill-palette-color="primary" rx="1%" id="o-0" data-palette-color="#FFFFFF"></rect></g><g transform="matrix(1,0,0,1,196.6880191616544,0.3863789428632458)"><svg viewBox="0 0 395.52 154.55157714530282" height="154.55157714530282" width="395.52"><g id="textblocktransform"><svg viewBox="0 0 395.52 154.55157714530282" height="154.55157714530282" width="395.52" id="textblock"><g><svg viewBox="0 0 395.52 154.55157714530282" height="154.55157714530282" width="395.52"><g transform="matrix(1,0,0,1,0,0)"><svg width="395.52" viewBox="3.850001811981201 -37.29999923706055 233.64999389648438 83.5" height="154.55157714530282" data-palette-color="#FFFFFF"><svg></svg><svg></svg><g class="undefined-text-0" data-fill-palette-color="primary" id="text-0"><path xmlns="http://www.w3.org/2000/svg" d="M33.25-27.05v0c0 1.867-0.623 3.44-1.87 4.72-1.253 1.287-2.997 2.163-5.23 2.63v0c2.367 0.4 4.483 1.333 6.35 2.8v0c0.933 0.767 1.69 1.723 2.27 2.87 0.587 1.153 0.88 2.43 0.88 3.83v0c0 3.133-1.5 5.707-4.5 7.72-3 2.02-6.933 3.03-11.8 3.03-4.867 0-8.44-0.71-10.72-2.13-2.287-1.413-3.43-3.703-3.43-6.87v0-20.75c0-2.3-0.45-4.133-1.35-5.5v0c4.767-1.733 9.633-2.6 14.6-2.6 4.967 0 8.677 0.967 11.13 2.9 2.447 1.933 3.67 4.383 3.67 7.35zM18.75-21.35v0c1.967 0 3.533-0.493 4.7-1.48 1.167-0.98 1.75-2.247 1.75-3.8 0-1.547-0.59-2.813-1.77-3.8-1.187-0.98-2.837-1.47-4.95-1.47-2.12 0-3.913 0.217-5.38 0.65v0 9.85l5.45 0.05c0.067 0 0.133 0 0.2 0zM13.1-16.2v8.4c0 1.967 2.117 2.95 6.35 2.95v0c2.533 0 4.517-0.517 5.95-1.55 1.433-1.033 2.15-2.4 2.15-4.1 0-1.7-0.717-3.077-2.15-4.13-1.433-1.047-3.417-1.57-5.95-1.57v0zM52.65-31.4v0 26.25c0 1.8 0.533 2.983 1.6 3.55v0c-1.267 1.433-2.767 2.15-4.5 2.15-1.733 0-3-0.483-3.8-1.45-0.8-0.967-1.2-2.467-1.2-4.5v0-26.3c0-1.733-0.55-2.883-1.65-3.45v0c1.2-1.433 2.717-2.15 4.55-2.15v0c3.333 0 5 1.967 5 5.9zM63.3-8.45v0-20.75c0-2.3-0.45-4.133-1.35-5.5v0c4.767-1.733 9.417-2.6 13.95-2.6v0c5.767 0 10.443 1.667 14.03 5 3.58 3.333 5.37 7.973 5.37 13.92 0 5.953-1.79 10.597-5.37 13.93-3.587 3.333-8.263 5-14.03 5v0c-4.333 0-7.517-0.71-9.55-2.13-2.033-1.413-3.05-3.703-3.05-6.87zM71.2-31.1v23.2c0 2.067 1.657 3.1 4.97 3.1 3.32 0 5.99-1.233 8.01-3.7 2.013-2.467 3.02-5.75 3.02-9.85 0-4.1-1.007-7.4-3.02-9.9-2.02-2.5-4.78-3.75-8.28-3.75v0c-1.533 0-3.1 0.3-4.7 0.9zM103.45-8.45v0-20.75c0-2.3-0.45-4.133-1.35-5.5v0c4.767-1.733 9.417-2.6 13.95-2.6v0c5.767 0 10.44 1.667 14.02 5 3.587 3.333 5.38 7.973 5.38 13.92 0 5.953-1.793 10.597-5.38 13.93-3.58 3.333-8.253 5-14.02 5v0c-4.333 0-7.517-0.71-9.55-2.13-2.033-1.413-3.05-3.703-3.05-6.87zM111.35-31.1v23.2c0 2.067 1.66 3.1 4.98 3.1 3.313 0 5.98-1.233 8-3.7 2.013-2.467 3.02-5.75 3.02-9.85 0-4.1-1.007-7.4-3.02-9.9-2.02-2.5-4.78-3.75-8.28-3.75v0c-1.533 0-3.1 0.3-4.7 0.9zM151.8-31.4v0 26.25c0 1.8 0.533 2.983 1.6 3.55v0c-1.267 1.433-2.767 2.15-4.5 2.15-1.733 0-3-0.483-3.8-1.45-0.8-0.967-1.2-2.467-1.2-4.5v0-26.3c0-1.733-0.55-2.883-1.65-3.45v0c1.2-1.433 2.717-2.15 4.55-2.15v0c3.333 0 5 1.967 5 5.9zM162.75-5.4v0-26.3c0-1.733-0.55-2.883-1.65-3.45v0c1.2-1.433 3-2.15 5.4-2.15v0c2.933 0 5.283 1.467 7.05 4.4v0l13.8 22.9v-21.7c0-1.733-0.55-2.883-1.65-3.45v0c1.2-1.433 2.717-2.15 4.55-2.15v0c3.333 0 5 1.967 5 5.9v0 26.25c0 1.9 0.317 3.317 0.95 4.25v0c-1.033 0.967-2.533 1.45-4.5 1.45-1.967 0-3.7-0.593-5.2-1.78-1.5-1.18-3.117-3.187-4.85-6.02v0l-11-18.45v20.55c0 1.8 0.533 2.983 1.6 3.55v0c-1.267 1.433-2.767 2.15-4.5 2.15-1.733 0-3-0.483-3.8-1.45-0.8-0.967-1.2-2.467-1.2-4.5zM235.85-14v0 13.65c0 1.8 0.55 2.983 1.65 3.55v0c-1.267 1.433-2.767 2.15-4.5 2.15-1.733 0-3-0.483-3.8-1.45-0.8-0.967-1.2-2.467-1.2-4.5v0-2.7c-1.9 2.567-4.85 3.85-8.85 3.85v0c-3.867 0-7.433-1.4-10.7-4.2v0c-1.567-1.367-2.84-3.217-3.82-5.55-0.987-2.333-1.48-4.95-1.48-7.85v0c0-6 1.743-10.877 5.23-14.63 3.48-3.747 8.403-5.62 14.77-5.62v0c3.567 0 6.61 0.733 9.13 2.2 2.513 1.467 3.77 3.233 3.77 5.3v0c0 1.2-0.557 2.207-1.67 3.02-1.12 0.82-2.397 1.23-3.83 1.23-1.433 0-2.717-0.35-3.85-1.05v0c0.033-0.333 0.05-0.65 0.05-0.95v0c0-1.5-0.433-2.767-1.3-3.8-0.867-1.033-2.167-1.55-3.9-1.55v0c-3.033 0-5.433 1.3-7.2 3.9v0c-1.867 2.667-2.8 6.1-2.8 10.3 0 4.2 0.867 7.457 2.6 9.77 1.733 2.32 4.167 3.48 7.3 3.48v0c4.367 0 6.55-2.017 6.55-6.05v0-2.35h-1.6c-1.733 0-3.3 0.033-4.7 0.1v0c-0.6-0.867-0.9-1.877-0.9-3.03 0-1.147 0.583-1.947 1.75-2.4 1.167-0.447 3.167-0.67 6-0.67 2.833 0 4.76 0.45 5.78 1.35 1.013 0.9 1.52 2.4 1.52 4.5z" fill="#FFFFFF" fill-rule="nonzero" stroke="none" stroke-width="1" stroke-linecap="butt" stroke-linejoin="miter" stroke-miterlimit="10" stroke-dasharray="" stroke-dashoffset="0" font-family="none" font-weight="none" font-size="none" text-anchor="none" style="mix-blend-mode: normal" data-fill-palette-color="primary" opacity="1"></path><path xmlns="http://www.w3.org/2000/svg" d="M32.15 15.75v0c0 1.233-0.39 2.223-1.17 2.97-0.787 0.753-1.863 1.13-3.23 1.13-1.367 0-2.65-0.433-3.85-1.3v0c0.267-0.533 0.4-1.227 0.4-2.08 0-0.847-0.49-1.603-1.47-2.27-0.987-0.667-2.387-1-4.2-1-1.82 0-3.313 0.333-4.48 1-1.167 0.667-1.75 1.557-1.75 2.67 0 1.12 0.71 2.153 2.13 3.1 1.413 0.953 3.13 1.87 5.15 2.75 2.013 0.887 4.03 1.847 6.05 2.88 2.013 1.033 3.73 2.383 5.15 4.05 1.413 1.667 2.12 3.533 2.12 5.6v0c0 3.2-1.423 5.823-4.27 7.87-2.853 2.053-6.303 3.08-10.35 3.08-4.053 0-7.48-0.76-10.28-2.28-2.8-1.513-4.2-3.47-4.2-5.87v0c0-1.4 0.493-2.517 1.48-3.35 0.98-0.833 2.163-1.25 3.55-1.25 1.38 0 2.737 0.533 4.07 1.6v0c-0.8 0.733-1.2 1.617-1.2 2.65 0 1.033 0.61 1.9 1.83 2.6 1.213 0.7 2.847 1.05 4.9 1.05 2.047 0 3.663-0.417 4.85-1.25 1.18-0.833 1.77-1.943 1.77-3.33 0-1.38-0.707-2.613-2.12-3.7-1.42-1.08-3.137-2.053-5.15-2.92-2.02-0.867-4.037-1.783-6.05-2.75-2.02-0.967-3.737-2.193-5.15-3.68-1.42-1.48-2.13-3.17-2.13-5.07v0c0-3.133 1.367-5.633 4.1-7.5 2.733-1.867 6.083-2.8 10.05-2.8 3.967 0 7.2 0.7 9.7 2.1 2.5 1.4 3.75 3.167 3.75 5.3zM72.25 14.25v0 26.25c0 1.8 0.533 2.983 1.6 3.55v0c-1.2 1.433-2.717 2.15-4.55 2.15v0c-3.267 0-4.9-1.983-4.9-5.95v0-10.75h-15.9v11c0 1.8 0.533 2.983 1.6 3.55v0c-1.267 1.433-2.767 2.15-4.5 2.15-1.733 0-3-0.483-3.8-1.45-0.8-0.967-1.2-2.467-1.2-4.5v0-26.3c0-1.733-0.55-2.883-1.65-3.45v0c1.2-1.433 2.717-2.15 4.55-2.15v0c3.333 0 5 1.967 5 5.9v0 10.15h15.9v-10.45c0-1.7-0.567-2.85-1.7-3.45v0c1.267-1.433 2.773-2.15 4.52-2.15 1.753 0 3.03 0.483 3.83 1.45 0.8 0.967 1.2 2.45 1.2 4.45zM98.4 41.25v0c2.933 0 5-1.3 6.2-3.9v0c0.933-2.1 1.4-4.733 1.4-7.9v0c0-0.7-0.017-1.433-0.05-2.2v0c-0.233-4.2-1.1-7.583-2.6-10.15-1.5-2.567-3.717-3.85-6.65-3.85v0c-5.067 0-7.6 3.983-7.6 11.95v0c0 6.7 1.433 11.4 4.3 14.1v0c1.367 1.3 3.033 1.95 5 1.95zM110.35 13.87c1.267 1.753 2.21 3.737 2.83 5.95 0.613 2.22 0.92 4.687 0.92 7.4 0 2.72-0.307 5.197-0.92 7.43-0.62 2.233-1.563 4.233-2.83 6-1.267 1.767-2.99 3.133-5.17 4.1-2.187 0.967-4.73 1.45-7.63 1.45v0c-5.533 0-9.673-1.76-12.42-5.28-2.753-3.513-4.13-8.07-4.13-13.67 0-5.6 1.377-10.15 4.13-13.65 2.747-3.5 6.887-5.25 12.42-5.25v0c2.933 0 5.483 0.483 7.65 1.45 2.167 0.967 3.883 2.323 5.15 4.07zM161.4 12.85v0c0-1.367-0.367-2.417-1.1-3.15v0c1.233-0.9 2.7-1.35 4.4-1.35v0c2.833 0 4.25 1.517 4.25 4.55v0c0 0.467-0.1 1.3-0.3 2.5v0l-6.15 24.25c-0.867 4.367-3 6.55-6.4 6.55v0c-3.467 0-5.667-2.183-6.6-6.55v0l-5.15-19.75-5.35 19.75c-0.533 2.433-1.323 4.133-2.37 5.1-1.053 0.967-2.487 1.45-4.3 1.45-1.82 0-3.22-0.483-4.2-1.45-0.987-0.967-1.73-2.667-2.23-5.1v0l-5.8-24.8c-0.533-2.267-1.333-3.733-2.4-4.4v0c1.367-1.4 2.917-2.1 4.65-2.1 1.733 0 3.077 0.44 4.03 1.32 0.947 0.887 1.62 2.447 2.02 4.68v0l4.3 23.45 6.7-24.75c0.5-1.733 1.183-2.95 2.05-3.65 0.867-0.7 2.033-1.05 3.5-1.05v0c3.033 0 4.917 1.567 5.65 4.7v0l5.85 25.15 4.75-23.5c0.133-0.667 0.2-1.283 0.2-1.85z" fill="#FFFFFF" fill-rule="nonzero" stroke="none" stroke-width="1" stroke-linecap="butt" stroke-linejoin="miter" stroke-miterlimit="10" stroke-dasharray="" stroke-dashoffset="0" font-family="none" font-weight="none" font-size="none" text-anchor="none" style="mix-blend-mode: normal" data-fill-palette-color="primary" opacity="1"></path></g></svg></g></svg></g></svg></g></svg></g><g transform="matrix(1,0,0,1,0,0.3863789428632458)"><svg viewBox="0 0 156.0890231041766 154.55157714530282" height="154.55157714530282" width="156.0890231041766"><g><svg xmlns="http://www.w3.org/2000/svg" viewBox="1.9949616193771362 2.5859999656677246 60.00503921508789 59.41400146484375" x="0" y="0" height="154.55157714530282" width="156.0890231041766" class="icon-icon-0" data-fill-palette-color="accent" id="icon-0"><g fill="#FFFFFF" data-fill-palette-color="accent"><path d="M34 31a3 3 0 0 0-3-3H25a3 3 0 0 0-3 3v1H18v8h4V62H58V40h4V32H34ZM24 31a1 1 0 0 1 1-1h6a1 1 0 0 1 1 1v1H24ZM56 60H24V40H56Zm4-26v4H20V34Z" fill="#FFFFFF" data-fill-palette-color="accent"></path><path d="M35 8.586L30.586 13 38 20.414l3-3 13 13L58.414 26l-13-13 3-3L41 2.586 36.586 7l1 1L36 9.586Zm3 9L33.414 13 35 11.414 39.586 16ZM55.586 26L54 27.586 41.414 15 43 13.414ZM41 5.414L45.586 10 44 11.586 39.414 7Zm-2 4L41.586 12 40 13.586 37.414 11Z" fill="#FFFFFF" data-fill-palette-color="accent"></path><path d="M7 45a5 5 0 0 0-1 9.9V62H8V54.9A5 5 0 0 0 7 45Zm0 8a3 3 0 1 1 3-3A3 3 0 0 1 7 53Z" fill="#FFFFFF" data-fill-palette-color="accent"></path><path d="M17 62V59.858a4 4 0 1 0-2 0V62Zm-3-6a2 2 0 1 1 2 2A2 2 0 0 1 14 56Z" fill="#FFFFFF" data-fill-palette-color="accent"></path></g></svg></g></svg></g></svg></g><defs></defs></svg><rect width="395.52" height="103.73699612923203" fill="none" stroke="none" visibility="hidden"></rect></g></svg></g></svg>